PathFileType	4	(X/Y/Z)	17_2_33_p1_0-380_filt_butterworth.trc
DataRate	CameraRate	NumFrames	NumMarkers	Units	OrigDataRate	OrigDataStartFrame	OrigNumFrames
57.0	57.0	5	27	m	57.0	0	380
Frame#	Time	RHip			RKnee			RAnkle			RBigToe			RSmallToe			RHeel			LHip			LKnee			LAnkle			LBigToe			LSmallToe			LHeel			Neck			Head			Nose			RShoulder			RElbow			RWrist			RThumb			RIndex			RPinky			LShoulder			LElbow			LWrist			LThumb			LIndex			LPinky			
		X1	Y1	Z1	X2	Y2	Z2	X3	Y3	Z3	X4	Y4	Z4	X5	Y5	Z5	X6	Y6	Z6	X7	Y7	Z7	X8	Y8	Z8	X9	Y9	Z9	X10	Y10	Z10	X11	Y11	Z11	X12	Y12	Z12	X13	Y13	Z13	X14	Y14	Z14	X15	Y15	Z15	X16	Y16	Z16	X17	Y17	Z17	X18	Y18	Z18	X19	Y19	Z19	X20	Y20	Z20	X21	Y21	Z21	X22	Y22	Z22	X23	Y23	Z23	X24	Y24	Z24	X25	Y25	Z25	X26	Y26	Z26	X27	Y27	Z27	
0	0.0	0.24527450581039867	0.5179913100429248	0.8347387647257821	0.23026896184300696	0.5618756678236352	1.2605805872863987	0.2100895991757662	0.7594290188696213	1.714635091024395	0.2370767358917254	0.5330655813172344	1.7288231971697372	0.2815000905132888	0.5899435704124323	1.746937102300357	0.19271913296895776	0.8125111335504159	1.7607719157792106	0.034196439398720566	0.5230753287888013	0.8424870174939502	0.033291187253056354	0.5954195649575835	1.2716360979534496	0.032656929820457675	0.6736184024655995	1.6911006205125467	0.08523731068909268	0.4986682845757116	1.719808230859366	0.02157735565653851	0.5161767000317746	1.7203491150118255	0.04268958363937776	0.7164751580406887	1.7455687566686122	0.13418464772911076	0.4660883303808335	0.20433595448172154	0.14990335402970978	0.3922034181389493	-0.040261657330190506	0.13811522877915974	0.31718269536108307	0.09280864588950029	0.29453401289278003	0.4511223744571501	0.30845908228009505	0.3004326903302331	0.44791011913052886	0.5859822261671176	0.22773148020446835	0.2897146191564503	0.7981787895717881	0.16537682645579685	0.22013937539321676	0.8537577294591516	0.1461728594500854	0.26982321536759335	0.9038126126147719	0.1559166524501039	0.3248867348080888	0.9176162543636756	-0.010756174693671993	0.4559621915260467	0.31042499685110525	-0.020379699999919777	0.4207826456067725	0.5855572250729726	0.107254684330555	0.2709638292307835	0.7721982483477288	0.20502739901897524	0.24627074794815865	0.8318294321799122	0.20384940738089213	0.24460430152379337	0.8615447851984555	0.14357974143909483	0.27001155814820055	0.9067664122726051
1	0.0175438596491228	0.2441690197500732	0.5134942963939744	0.8315428823424169	0.229766381333046	0.5618205524845415	1.2565490860054624	0.20998350485253703	0.7597022386930053	1.714653553814613	0.23785226595944636	0.5399885106992918	1.7296207392492733	0.2848584376687548	0.5936390874317955	1.7424953595767272	0.19223888958361932	0.812959615333723	1.7616169597487785	0.033885821043559396	0.5215085936467185	0.8390429013704153	0.03342643600648869	0.5960643454721877	1.2730357877514873	0.03291582417380615	0.6746067946857125	1.6932780378597028	0.08479614373337908	0.49735833112487043	1.7166524027041214	0.02152793192792898	0.5161877057372606	1.7203047005406409	0.042643392018488865	0.7155565952872864	1.7452638591371274	0.13417151743238706	0.46612779178227154	0.20434558384247437	0.1499058127868521	0.3914354043636427	-0.042482162576500074	0.13815788935555	0.31706501294028244	0.09282976350098686	0.2927437945590076	0.45565863949397	0.3086122190849503	0.30379426590010067	0.43970942733676865	0.5873117025750417	0.22647361674189476	0.28230355678937274	0.792158240221914	0.16617314672916056	0.22831036139796843	0.8585086191900211	0.1489806341580344	0.2693682524351707	0.9038173621157306	0.16242945047328483	0.3261756220131524	0.9127314387378923	-0.010763605957810184	0.454945417408903	0.30814698208666347	-0.020379307431483102	0.42087954405311767	0.585569701295466	0.10719693855095105	0.270806327985592	0.7721379378396138	0.20725305541071606	0.2527402379955523	0.8330449109285288	0.20511913925984224	0.24466772082671404	0.8614920114013084	0.14559475495439117	0.2716908084614299	0.9028840419858428
2	0.0350877192982456	0.24377628020256298	0.5129416376139562	0.8305599855716609	0.22944335590263903	0.5613489628413668	1.2542921719165478	0.20992252923712917	0.759894589009676	1.714654619364914	0.23849557938175497	0.5428803179660421	1.7299406389005672	0.28683046031066317	0.595687336595463	1.739872086024795	0.1920135111093952	0.8134588891404276	1.7607175605159118	0.03363789321310392	0.5202378654509184	0.8364871398223037	0.0334495255147621	0.5961323582936072	1.2731229236625106	0.03309617515024609	0.6753162779652178	1.694848637646289	0.08449190527719483	0.4968703072011372	1.7157486793926635	0.02147876403041332	0.5162029043047687	1.7203430745026762	0.042622781463037274	0.715605777450788	1.7453130228092477	0.13416562859361061	0.4661421369622899	0.2043422059527794	0.1499114245670359	0.3909879614034407	-0.0437439166142442	0.13819814121226667	0.3169873147815122	0.09283966246433582	0.2910145164359968	0.46002758886168166	0.3087321829502762	0.3056114924698991	0.43506876997670074	0.5879838119661692	0.22594164552676838	0.2779904332744724	0.7887445466600662	0.16782987211810124	0.22435239891868466	0.8572463599711626	0.15297527717870663	0.2644127091188594	0.9012091882318889	0.16638132021586327	0.32693919856652076	0.9094375922146801	-0.01075058243069539	0.45445667176878995	0.306795103886306	-0.020385393237751903	0.4209239031415548	0.5855490301323734	0.10717483821387871	0.27089988240847174	0.7721365955523385	0.20843127704650066	0.25473639502023765	0.8338513771494632	0.2059473259788218	0.24340404545418662	0.8611232167889887	0.14692158541055503	0.2724985143077455	0.9005161833073199
3	0.0526315789473684	0.24391971232703322	0.5151072582079026	0.8313601620218811	0.22936037124118724	0.5606822553223669	1.2541930777191876	0.2099089044343081	0.7599909569381648	1.7146535429873722	0.2392166486592534	0.5413946052728738	1.729578330843922	0.287346138418306	0.5960013203803316	1.739140473057884	0.19200933896388728	0.8139244892615658	1.7589533681107468	0.03346232810266028	0.5193651748933434	0.8351273045995897	0.03340350831752019	0.5957924702954169	1.2723657851136772	0.03323427040343955	0.6758642172259555	1.6960930622945862	0.08432166049677217	0.49712971967640607	1.716902523604054	0.02144892227979295	0.5162243470693344	1.7204679287987223	0.04272925903248335	0.7185241294227441	1.7466679966372745	0.1341670048125988	0.46612865179372465	0.20432502338572672	0.14992151261263156	0.39085994501236554	-0.04401576999412701	0.1382174110929945	0.3169810934259929	0.09283945933051672	0.2898382257958807	0.4629867754013077	0.3087647129999767	0.305845248021146	0.43402799956429344	0.5879958907968814	0.2263680744906484	0.27685312893047365	0.7876971509978197	0.17084123499778656	0.21033118839550002	0.8511857913662907	0.15695337547677166	0.25484778802431585	0.8968747462020158	0.16764829678355006	0.32725199211604	0.9083956778298801	-0.010716513536573035	0.45454534120285817	0.3064192082667064	-0.020410504359933496	0.4210092809338465	0.5855001357185611	0.10760975648324833	0.2710996290814858	0.7721291094254619	0.2087299944463632	0.252750985263345	0.8343627637701924	0.2063201699297928	0.24121379406652696	0.8605380182115021	0.14744699903858405	0.27241162975707117	0.8993970348634602
4	0.0701754385964912	0.2440152001659638	0.5169084141824346	0.8323977491196184	0.22941997926471663	0.5602374851449357	1.2551170532801015	0.2099180360487321	0.7600132826148909	1.7146642125252156	0.2402169401429237	0.539061439959585	1.7289082613872444	0.2871879673896655	0.5955962632107462	1.7392810936339005	0.19208811773548354	0.8141329881075844	1.7580389499289844	0.03332015584459381	0.5189155425043979	0.8347864098187785	0.033369330796516	0.5954733163591515	1.2717728059603075	0.03334575002538155	0.6763038861709283	1.6970872131616677	0.08431529313824751	0.4976224634488291	1.7184196524995277	0.021449607417028893	0.5162514634395897	1.7206091231037717	0.04304899446518903	0.7253464396984326	1.749910024897412	0.13417177790419713	0.4661069842234657	0.20430591104193982	0.1499309587120096	0.3908564134853144	-0.04387019861315124	0.13817334166880813	0.31710209729162964	0.09283734446382941	0.28944609380348574	0.46401952349688	0.30879619662388597	0.30546108764102403	0.4344045448490508	0.5878003746434439	0.22784514455302715	0.27705916227503463	0.7872997740306357	0.17550351296737426	0.1969242071311625	0.8459523263134795	0.15902764089608803	0.24406218828797815	0.8933465023787844	0.16753222755329064	0.3274529377643452	0.9090682963842319	-0.010699109682312902	0.4546172162530134	0.30650760827739976	-0.02042683405197932	0.42144450878915973	0.5854810068054299	0.10920664783531678	0.2705510396113282	0.7718843648908854	0.20927935221220334	0.25039760014091456	0.834739715868447	0.20691703832140607	0.2396004378657387	0.8601174501845418	0.1475050349718137	0.2718721187725984	0.8979116793676247
